<global>
amp_veltrack=0
ampeg_attack=0.01
ampeg_release=3.50
xf_cccurve=gain
xfin_hicc1=127
xfin_locc1=0
xfout_hicc1=127
xfout_locc1=127

<group>
group_label=RR1
seq_length=8
seq_position=1

<region>
hivel=127
key=A#3
lovel=43
offset=2073
sample=Bassflute_staccatissimo_FF_A#3_RR1.opus

<region>
hivel=127
key=A#4
lovel=43
offset=1442
sample=Bassflute_staccatissimo_FF_A#4_RR1.opus

<region>
hivel=127
key=A#5
lovel=43
offset=364
sample=Bassflute_staccatissimo_FF_A#5_RR1.opus

<region>
hivel=127
key=A3
lovel=43
offset=2036
sample=Bassflute_staccatissimo_FF_A3_RR1.opus

<region>
hivel=127
key=A4
lovel=43
offset=2810
sample=Bassflute_staccatissimo_FF_A4_RR1.opus

<region>
hivel=127
key=A5
lovel=43
offset=2392
sample=Bassflute_staccatissimo_FF_A5_RR1.opus

<region>
hivel=127
key=B3
lovel=43
offset=2334
sample=Bassflute_staccatissimo_FF_B3_RR1.opus

<region>
hivel=127
key=B4
lovel=43
offset=1922
sample=Bassflute_staccatissimo_FF_B4_RR1.opus

<region>
hivel=127
key=B5
lovel=43
offset=2529
sample=Bassflute_staccatissimo_FF_B5_RR1.opus

<region>
hivel=127
key=C#3
lovel=43
offset=1127
sample=Bassflute_staccatissimo_FF_C#3_RR1.opus

<region>
hivel=127
key=C#4
lovel=43
offset=551
sample=Bassflute_staccatissimo_FF_C#4_RR1.opus

<region>
hivel=127
key=C#5
lovel=43
sample=Bassflute_staccatissimo_FF_C#5_RR1.opus

<region>
hivel=127
key=C3
lovel=43
offset=566
sample=Bassflute_staccatissimo_FF_C3_RR1.opus

<region>
hivel=127
key=C4
lovel=43
offset=1679
sample=Bassflute_staccatissimo_FF_C4_RR1.opus

<region>
hivel=127
key=C5
lovel=43
offset=202
sample=Bassflute_staccatissimo_FF_C5_RR1.opus

<region>
hivel=127
key=C6
lovel=43
offset=1160
sample=Bassflute_staccatissimo_FF_C6_RR1.opus

<region>
hivel=127
key=D#3
lovel=43
offset=2093
sample=Bassflute_staccatissimo_FF_D#3_RR1.opus

<region>
hivel=127
key=D#4
lovel=43
offset=3223
sample=Bassflute_staccatissimo_FF_D#4_RR1.opus

<region>
hivel=127
key=D#5
lovel=43
offset=375
sample=Bassflute_staccatissimo_FF_D#5_RR1.opus

<region>
hivel=127
key=D3
lovel=43
offset=1884
sample=Bassflute_staccatissimo_FF_D3_RR1.opus

<region>
hivel=127
key=D4
lovel=43
offset=2377
sample=Bassflute_staccatissimo_FF_D4_RR1.opus

<region>
hivel=127
key=D5
lovel=43
offset=1982
sample=Bassflute_staccatissimo_FF_D5_RR1.opus

<region>
hivel=127
key=E3
lovel=43
offset=2861
sample=Bassflute_staccatissimo_FF_E3_RR1.opus

<region>
hivel=127
key=E4
lovel=43
offset=3685
sample=Bassflute_staccatissimo_FF_E4_RR1.opus

<region>
hivel=127
key=E5
lovel=43
offset=3044
sample=Bassflute_staccatissimo_FF_E5_RR1.opus

<region>
hivel=127
key=F#3
lovel=43
offset=1430
sample=Bassflute_staccatissimo_FF_F#3_RR1.opus

<region>
hivel=127
key=F#4
lovel=43
offset=3101
sample=Bassflute_staccatissimo_FF_F#4_RR1.opus

<region>
hivel=127
key=F#5
lovel=43
offset=564
sample=Bassflute_staccatissimo_FF_F#5_RR1.opus

<region>
hivel=127
key=F3
lovel=43
offset=1922
sample=Bassflute_staccatissimo_FF_F3_RR1.opus

<region>
hivel=127
key=F4
lovel=43
offset=3284
sample=Bassflute_staccatissimo_FF_F4_RR1.opus

<region>
hivel=127
key=F5
lovel=43
offset=979
sample=Bassflute_staccatissimo_FF_F5_RR1.opus

<region>
hivel=127
key=G#3
lovel=43
offset=1288
sample=Bassflute_staccatissimo_FF_G#3_RR1.opus

<region>
hivel=127
key=G#4
lovel=43
offset=3511
sample=Bassflute_staccatissimo_FF_G#4_RR1.opus

<region>
hivel=127
key=G#5
lovel=43
offset=1810
sample=Bassflute_staccatissimo_FF_G#5_RR1.opus

<region>
hivel=127
key=G3
lovel=43
offset=1386
sample=Bassflute_staccatissimo_FF_G3_RR1.opus

<region>
hivel=127
key=G4
lovel=43
offset=3748
sample=Bassflute_staccatissimo_FF_G4_RR1.opus

<region>
hivel=127
key=G5
lovel=43
offset=545
sample=Bassflute_staccatissimo_FF_G5_RR1.opus

<region>
hivel=42
key=A#3
lovel=0
offset=342
sample=Bassflute_staccatissimo_PP_A#3_RR1.opus

<region>
hivel=42
key=A#4
lovel=0
offset=1198
sample=Bassflute_staccatissimo_PP_A#4_RR1.opus

<region>
hivel=42
key=A#5
lovel=0
sample=Bassflute_staccatissimo_PP_A#5_RR1.opus

<region>
hivel=42
key=A3
lovel=0
offset=168
sample=Bassflute_staccatissimo_PP_A3_RR1.opus

<region>
hivel=42
key=A4
lovel=0
offset=2379
sample=Bassflute_staccatissimo_PP_A4_RR1.opus

<region>
hivel=42
key=A5
lovel=0
offset=970
sample=Bassflute_staccatissimo_PP_A5_RR1.opus

<region>
hivel=42
key=B3
lovel=0
sample=Bassflute_staccatissimo_PP_B3_RR1.opus

<region>
hivel=42
key=B4
lovel=0
offset=1574
sample=Bassflute_staccatissimo_PP_B4_RR1.opus

<region>
hivel=42
key=B5
lovel=0
offset=1546
sample=Bassflute_staccatissimo_PP_B5_RR1.opus

<region>
hivel=42
key=C#3
lovel=0
sample=Bassflute_staccatissimo_PP_C#3_RR1.opus

<region>
hivel=42
key=C#4
lovel=0
offset=81
sample=Bassflute_staccatissimo_PP_C#4_RR1.opus

<region>
hivel=42
key=C#5
lovel=0
sample=Bassflute_staccatissimo_PP_C#5_RR1.opus

<region>
hivel=42
key=C3
lovel=0
sample=Bassflute_staccatissimo_PP_C3_RR1.opus

<region>
hivel=42
key=C4
lovel=0
offset=785
sample=Bassflute_staccatissimo_PP_C4_RR1.opus

<region>
hivel=42
key=C5
lovel=0
offset=2184
sample=Bassflute_staccatissimo_PP_C5_RR1.opus

<region>
hivel=42
key=C6
lovel=0
offset=454
sample=Bassflute_staccatissimo_PP_C6_RR1.opus

<region>
hivel=42
key=D#3
lovel=0
sample=Bassflute_staccatissimo_PP_D#3_RR1.opus

<region>
hivel=42
key=D#4
lovel=0
offset=1864
sample=Bassflute_staccatissimo_PP_D#4_RR1.opus

<region>
hivel=42
key=D#5
lovel=0
offset=2002
sample=Bassflute_staccatissimo_PP_D#5_RR1.opus

<region>
hivel=42
key=D3
lovel=0
sample=Bassflute_staccatissimo_PP_D3_RR1.opus

<region>
hivel=42
key=D4
lovel=0
offset=801
sample=Bassflute_staccatissimo_PP_D4_RR1.opus

<region>
hivel=42
key=D5
lovel=0
offset=2226
sample=Bassflute_staccatissimo_PP_D5_RR1.opus

<region>
hivel=42
key=E3
lovel=0
sample=Bassflute_staccatissimo_PP_E3_RR1.opus

<region>
hivel=42
key=E4
lovel=0
offset=2120
sample=Bassflute_staccatissimo_PP_E4_RR1.opus

<region>
hivel=42
key=E5
lovel=0
offset=898
sample=Bassflute_staccatissimo_PP_E5_RR1.opus

<region>
hivel=42
key=F#3
lovel=0
sample=Bassflute_staccatissimo_PP_F#3_RR1.opus

<region>
hivel=42
key=F#4
lovel=0
offset=2214
sample=Bassflute_staccatissimo_PP_F#4_RR1.opus

<region>
hivel=42
key=F#5
lovel=0
sample=Bassflute_staccatissimo_PP_F#5_RR1.opus

<region>
hivel=42
key=F3
lovel=0
sample=Bassflute_staccatissimo_PP_F3_RR1.opus

<region>
hivel=42
key=F4
lovel=0
offset=1614
sample=Bassflute_staccatissimo_PP_F4_RR1.opus

<region>
hivel=42
key=F5
lovel=0
offset=349
sample=Bassflute_staccatissimo_PP_F5_RR1.opus

<region>
hivel=42
key=G#3
lovel=0
offset=688
sample=Bassflute_staccatissimo_PP_G#3_RR1.opus

<region>
hivel=42
key=G#4
lovel=0
offset=1740
sample=Bassflute_staccatissimo_PP_G#4_RR1.opus

<region>
hivel=42
key=G#5
lovel=0
offset=1499
sample=Bassflute_staccatissimo_PP_G#5_RR1.opus

<region>
hivel=42
key=G3
lovel=0
sample=Bassflute_staccatissimo_PP_G3_RR1.opus

<region>
hivel=42
key=G4
lovel=0
offset=24
sample=Bassflute_staccatissimo_PP_G4_RR1.opus

<region>
hivel=42
key=G5
lovel=0
sample=Bassflute_staccatissimo_PP_G5_RR1.opus

<group>
group_label=RR2
seq_length=8
seq_position=2

<region>
hivel=127
key=A#3
lovel=43
offset=2075
sample=Bassflute_staccatissimo_FF_A#3_RR2.opus

<region>
hivel=127
key=A#4
lovel=43
offset=1173
sample=Bassflute_staccatissimo_FF_A#4_RR2.opus

<region>
hivel=127
key=A#5
lovel=43
offset=196
sample=Bassflute_staccatissimo_FF_A#5_RR2.opus

<region>
hivel=127
key=A3
lovel=43
offset=2552
sample=Bassflute_staccatissimo_FF_A3_RR2.opus

<region>
hivel=127
key=A4
lovel=43
offset=1990
sample=Bassflute_staccatissimo_FF_A4_RR2.opus

<region>
hivel=127
key=A5
lovel=43
offset=938
sample=Bassflute_staccatissimo_FF_A5_RR2.opus

<region>
hivel=127
key=B3
lovel=43
offset=2912
sample=Bassflute_staccatissimo_FF_B3_RR2.opus

<region>
hivel=127
key=B4
lovel=43
offset=148
sample=Bassflute_staccatissimo_FF_B4_RR2.opus

<region>
hivel=127
key=B5
lovel=43
offset=3322
sample=Bassflute_staccatissimo_FF_B5_RR2.opus

<region>
hivel=127
key=C#3
lovel=43
offset=2169
sample=Bassflute_staccatissimo_FF_C#3_RR2.opus

<region>
hivel=127
key=C#4
lovel=43
offset=1196
sample=Bassflute_staccatissimo_FF_C#4_RR2.opus

<region>
hivel=127
key=C#5
lovel=43
sample=Bassflute_staccatissimo_FF_C#5_RR2.opus

<region>
hivel=127
key=C3
lovel=43
sample=Bassflute_staccatissimo_FF_C3_RR2.opus

<region>
hivel=127
key=C4
lovel=43
offset=1609
sample=Bassflute_staccatissimo_FF_C4_RR2.opus

<region>
hivel=127
key=C5
lovel=43
offset=51
sample=Bassflute_staccatissimo_FF_C5_RR2.opus

<region>
hivel=127
key=C6
lovel=43
offset=531
sample=Bassflute_staccatissimo_FF_C6_RR2.opus

<region>
hivel=127
key=D#3
lovel=43
offset=2735
sample=Bassflute_staccatissimo_FF_D#3_RR2.opus

<region>
hivel=127
key=D#4
lovel=43
offset=3001
sample=Bassflute_staccatissimo_FF_D#4_RR2.opus

<region>
hivel=127
key=D#5
lovel=43
offset=804
sample=Bassflute_staccatissimo_FF_D#5_RR2.opus

<region>
hivel=127
key=D3
lovel=43
offset=2188
sample=Bassflute_staccatissimo_FF_D3_RR2.opus

<region>
hivel=127
key=D4
lovel=43
offset=2372
sample=Bassflute_staccatissimo_FF_D4_RR2.opus

<region>
hivel=127
key=D5
lovel=43
offset=2155
sample=Bassflute_staccatissimo_FF_D5_RR2.opus

<region>
hivel=127
key=E3
lovel=43
offset=2596
sample=Bassflute_staccatissimo_FF_E3_RR2.opus

<region>
hivel=127
key=E4
lovel=43
offset=4075
sample=Bassflute_staccatissimo_FF_E4_RR2.opus

<region>
hivel=127
key=E5
lovel=43
offset=3581
sample=Bassflute_staccatissimo_FF_E5_RR2.opus

<region>
hivel=127
key=F#3
lovel=43
offset=2023
sample=Bassflute_staccatissimo_FF_F#3_RR2.opus

<region>
hivel=127
key=F#4
lovel=43
offset=2214
sample=Bassflute_staccatissimo_FF_F#4_RR2.opus

<region>
hivel=127
key=F#5
lovel=43
offset=1169
sample=Bassflute_staccatissimo_FF_F#5_RR2.opus

<region>
hivel=127
key=F3
lovel=43
offset=2348
sample=Bassflute_staccatissimo_FF_F3_RR2.opus

<region>
hivel=127
key=F4
lovel=43
offset=2336
sample=Bassflute_staccatissimo_FF_F4_RR2.opus

<region>
hivel=127
key=F5
lovel=43
offset=976
sample=Bassflute_staccatissimo_FF_F5_RR2.opus

<region>
hivel=127
key=G#3
lovel=43
offset=1521
sample=Bassflute_staccatissimo_FF_G#3_RR2.opus

<region>
hivel=127
key=G#4
lovel=43
offset=2321
sample=Bassflute_staccatissimo_FF_G#4_RR2.opus

<region>
hivel=127
key=G#5
lovel=43
offset=4271
sample=Bassflute_staccatissimo_FF_G#5_RR2.opus

<region>
hivel=127
key=G3
lovel=43
offset=1388
sample=Bassflute_staccatissimo_FF_G3_RR2.opus

<region>
hivel=127
key=G4
lovel=43
offset=4877
sample=Bassflute_staccatissimo_FF_G4_RR2.opus

<region>
hivel=127
key=G5
lovel=43
offset=443
sample=Bassflute_staccatissimo_FF_G5_RR2.opus

<region>
hivel=42
key=A#3
lovel=0
offset=515
sample=Bassflute_staccatissimo_PP_A#3_RR2.opus

<region>
hivel=42
key=A#4
lovel=0
offset=412
sample=Bassflute_staccatissimo_PP_A#4_RR2.opus

<region>
hivel=42
key=A#5
lovel=0
sample=Bassflute_staccatissimo_PP_A#5_RR2.opus

<region>
hivel=42
key=A3
lovel=0
offset=392
sample=Bassflute_staccatissimo_PP_A3_RR2.opus

<region>
hivel=42
key=A4
lovel=0
offset=1980
sample=Bassflute_staccatissimo_PP_A4_RR2.opus

<region>
hivel=42
key=A5
lovel=0
offset=1276
sample=Bassflute_staccatissimo_PP_A5_RR2.opus

<region>
hivel=42
key=B3
lovel=0
sample=Bassflute_staccatissimo_PP_B3_RR2.opus

<region>
hivel=42
key=B4
lovel=0
offset=1314
sample=Bassflute_staccatissimo_PP_B4_RR2.opus

<region>
hivel=42
key=B5
lovel=0
offset=1686
sample=Bassflute_staccatissimo_PP_B5_RR2.opus

<region>
hivel=42
key=C#3
lovel=0
offset=566
sample=Bassflute_staccatissimo_PP_C#3_RR2.opus

<region>
hivel=42
key=C#4
lovel=0
sample=Bassflute_staccatissimo_PP_C#4_RR2.opus

<region>
hivel=42
key=C#5
lovel=0
sample=Bassflute_staccatissimo_PP_C#5_RR2.opus

<region>
hivel=42
key=C3
lovel=0
sample=Bassflute_staccatissimo_PP_C3_RR2.opus

<region>
hivel=42
key=C4
lovel=0
offset=1450
sample=Bassflute_staccatissimo_PP_C4_RR2.opus

<region>
hivel=42
key=C5
lovel=0
offset=2276
sample=Bassflute_staccatissimo_PP_C5_RR2.opus

<region>
hivel=42
key=C6
lovel=0
offset=87
sample=Bassflute_staccatissimo_PP_C6_RR2.opus

<region>
hivel=42
key=D#3
lovel=0
sample=Bassflute_staccatissimo_PP_D#3_RR2.opus

<region>
hivel=42
key=D#4
lovel=0
offset=1351
sample=Bassflute_staccatissimo_PP_D#4_RR2.opus

<region>
hivel=42
key=D#5
lovel=0
offset=3368
sample=Bassflute_staccatissimo_PP_D#5_RR2.opus

<region>
hivel=42
key=D3
lovel=0
sample=Bassflute_staccatissimo_PP_D3_RR2.opus

<region>
hivel=42
key=D4
lovel=0
offset=1421
sample=Bassflute_staccatissimo_PP_D4_RR2.opus

<region>
hivel=42
key=D5
lovel=0
offset=1428
sample=Bassflute_staccatissimo_PP_D5_RR2.opus

<region>
hivel=42
key=E3
lovel=0
sample=Bassflute_staccatissimo_PP_E3_RR2.opus

<region>
hivel=42
key=E4
lovel=0
offset=1251
sample=Bassflute_staccatissimo_PP_E4_RR2.opus

<region>
hivel=42
key=E5
lovel=0
offset=1638
sample=Bassflute_staccatissimo_PP_E5_RR2.opus

<region>
hivel=42
key=F#3
lovel=0
sample=Bassflute_staccatissimo_PP_F#3_RR2.opus

<region>
hivel=42
key=F#4
lovel=0
offset=1038
sample=Bassflute_staccatissimo_PP_F#4_RR2.opus

<region>
hivel=42
key=F#5
lovel=0
sample=Bassflute_staccatissimo_PP_F#5_RR2.opus

<region>
hivel=42
key=F3
lovel=0
offset=330
sample=Bassflute_staccatissimo_PP_F3_RR2.opus

<region>
hivel=42
key=F4
lovel=0
offset=1071
sample=Bassflute_staccatissimo_PP_F4_RR2.opus

<region>
hivel=42
key=F5
lovel=0
sample=Bassflute_staccatissimo_PP_F5_RR2.opus

<region>
hivel=42
key=G#3
lovel=0
offset=669
sample=Bassflute_staccatissimo_PP_G#3_RR2.opus

<region>
hivel=42
key=G#4
lovel=0
offset=877
sample=Bassflute_staccatissimo_PP_G#4_RR2.opus

<region>
hivel=42
key=G#5
lovel=0
offset=1908
sample=Bassflute_staccatissimo_PP_G#5_RR2.opus

<region>
hivel=42
key=G3
lovel=0
offset=6
sample=Bassflute_staccatissimo_PP_G3_RR2.opus

<region>
hivel=42
key=G4
lovel=0
offset=1858
sample=Bassflute_staccatissimo_PP_G4_RR2.opus

<region>
hivel=42
key=G5
lovel=0
sample=Bassflute_staccatissimo_PP_G5_RR2.opus

<group>
group_label=RR3
seq_length=8
seq_position=3

<region>
hivel=127
key=A#3
lovel=43
offset=1836
sample=Bassflute_staccatissimo_FF_A#3_RR3.opus

<region>
hivel=127
key=A#4
lovel=43
offset=694
sample=Bassflute_staccatissimo_FF_A#4_RR3.opus

<region>
hivel=127
key=A#5
lovel=43
offset=132
sample=Bassflute_staccatissimo_FF_A#5_RR3.opus

<region>
hivel=127
key=A3
lovel=43
offset=2213
sample=Bassflute_staccatissimo_FF_A3_RR3.opus

<region>
hivel=127
key=A4
lovel=43
offset=1857
sample=Bassflute_staccatissimo_FF_A4_RR3.opus

<region>
hivel=127
key=A5
lovel=43
offset=1044
sample=Bassflute_staccatissimo_FF_A5_RR3.opus

<region>
hivel=127
key=B3
lovel=43
offset=2406
sample=Bassflute_staccatissimo_FF_B3_RR3.opus

<region>
hivel=127
key=B4
lovel=43
offset=233
sample=Bassflute_staccatissimo_FF_B4_RR3.opus

<region>
hivel=127
key=B5
lovel=43
offset=3085
sample=Bassflute_staccatissimo_FF_B5_RR3.opus

<region>
hivel=127
key=C#3
lovel=43
offset=1650
sample=Bassflute_staccatissimo_FF_C#3_RR3.opus

<region>
hivel=127
key=C#4
lovel=43
offset=1432
sample=Bassflute_staccatissimo_FF_C#4_RR3.opus

<region>
hivel=127
key=C#5
lovel=43
sample=Bassflute_staccatissimo_FF_C#5_RR3.opus

<region>
hivel=127
key=C3
lovel=43
offset=463
sample=Bassflute_staccatissimo_FF_C3_RR3.opus

<region>
hivel=127
key=C4
lovel=43
offset=2328
sample=Bassflute_staccatissimo_FF_C4_RR3.opus

<region>
hivel=127
key=C5
lovel=43
offset=84
sample=Bassflute_staccatissimo_FF_C5_RR3.opus

<region>
hivel=127
key=C6
lovel=43
offset=81
sample=Bassflute_staccatissimo_FF_C6_RR3.opus

<region>
hivel=127
key=D#3
lovel=43
offset=1765
sample=Bassflute_staccatissimo_FF_D#3_RR3.opus

<region>
hivel=127
key=D#4
lovel=43
offset=3149
sample=Bassflute_staccatissimo_FF_D#4_RR3.opus

<region>
hivel=127
key=D#5
lovel=43
offset=1191
sample=Bassflute_staccatissimo_FF_D#5_RR3.opus

<region>
hivel=127
key=D3
lovel=43
offset=2671
sample=Bassflute_staccatissimo_FF_D3_RR3.opus

<region>
hivel=127
key=D4
lovel=43
offset=3588
sample=Bassflute_staccatissimo_FF_D4_RR3.opus

<region>
hivel=127
key=D5
lovel=43
offset=1739
sample=Bassflute_staccatissimo_FF_D5_RR3.opus

<region>
hivel=127
key=E3
lovel=43
offset=1671
sample=Bassflute_staccatissimo_FF_E3_RR3.opus

<region>
hivel=127
key=E4
lovel=43
offset=3347
sample=Bassflute_staccatissimo_FF_E4_RR3.opus

<region>
hivel=127
key=E5
lovel=43
offset=3678
sample=Bassflute_staccatissimo_FF_E5_RR3.opus

<region>
hivel=127
key=F#3
lovel=43
offset=1944
sample=Bassflute_staccatissimo_FF_F#3_RR3.opus

<region>
hivel=127
key=F#4
lovel=43
offset=2623
sample=Bassflute_staccatissimo_FF_F#4_RR3.opus

<region>
hivel=127
key=F#5
lovel=43
offset=1273
sample=Bassflute_staccatissimo_FF_F#5_RR3.opus

<region>
hivel=127
key=F3
lovel=43
offset=2072
sample=Bassflute_staccatissimo_FF_F3_RR3.opus

<region>
hivel=127
key=F4
lovel=43
offset=2852
sample=Bassflute_staccatissimo_FF_F4_RR3.opus

<region>
hivel=127
key=F5
lovel=43
offset=2949
sample=Bassflute_staccatissimo_FF_F5_RR3.opus

<region>
hivel=127
key=G#3
lovel=43
offset=1509
sample=Bassflute_staccatissimo_FF_G#3_RR3.opus

<region>
hivel=127
key=G#4
lovel=43
offset=2834
sample=Bassflute_staccatissimo_FF_G#4_RR3.opus

<region>
hivel=127
key=G#5
lovel=43
offset=2548
sample=Bassflute_staccatissimo_FF_G#5_RR3.opus

<region>
hivel=127
key=G3
lovel=43
offset=1887
sample=Bassflute_staccatissimo_FF_G3_RR3.opus

<region>
hivel=127
key=G4
lovel=43
offset=3028
sample=Bassflute_staccatissimo_FF_G4_RR3.opus

<region>
hivel=127
key=G5
lovel=43
offset=412
sample=Bassflute_staccatissimo_FF_G5_RR3.opus

<region>
hivel=42
key=A#3
lovel=0
offset=146
sample=Bassflute_staccatissimo_PP_A#3_RR3.opus

<region>
hivel=42
key=A#4
lovel=0
offset=1624
sample=Bassflute_staccatissimo_PP_A#4_RR3.opus

<region>
hivel=42
key=A#5
lovel=0
offset=391
sample=Bassflute_staccatissimo_PP_A#5_RR3.opus

<region>
hivel=42
key=A3
lovel=0
offset=401
sample=Bassflute_staccatissimo_PP_A3_RR3.opus

<region>
hivel=42
key=A4
lovel=0
offset=2091
sample=Bassflute_staccatissimo_PP_A4_RR3.opus

<region>
hivel=42
key=A5
lovel=0
offset=1727
sample=Bassflute_staccatissimo_PP_A5_RR3.opus

<region>
hivel=42
key=B3
lovel=0
sample=Bassflute_staccatissimo_PP_B3_RR3.opus

<region>
hivel=42
key=B4
lovel=0
offset=1115
sample=Bassflute_staccatissimo_PP_B4_RR3.opus

<region>
hivel=42
key=B5
lovel=0
offset=931
sample=Bassflute_staccatissimo_PP_B5_RR3.opus

<region>
hivel=42
key=C#3
lovel=0
sample=Bassflute_staccatissimo_PP_C#3_RR3.opus

<region>
hivel=42
key=C#4
lovel=0
offset=214
sample=Bassflute_staccatissimo_PP_C#4_RR3.opus

<region>
hivel=42
key=C#5
lovel=0
sample=Bassflute_staccatissimo_PP_C#5_RR3.opus

<region>
hivel=42
key=C3
lovel=0
sample=Bassflute_staccatissimo_PP_C3_RR3.opus

<region>
hivel=42
key=C4
lovel=0
offset=906
sample=Bassflute_staccatissimo_PP_C4_RR3.opus

<region>
hivel=42
key=C5
lovel=0
offset=1771
sample=Bassflute_staccatissimo_PP_C5_RR3.opus

<region>
hivel=42
key=C6
lovel=0
sample=Bassflute_staccatissimo_PP_C6_RR3.opus

<region>
hivel=42
key=D#3
lovel=0
sample=Bassflute_staccatissimo_PP_D#3_RR3.opus

<region>
hivel=42
key=D#4
lovel=0
offset=1811
sample=Bassflute_staccatissimo_PP_D#4_RR3.opus

<region>
hivel=42
key=D#5
lovel=0
offset=3167
sample=Bassflute_staccatissimo_PP_D#5_RR3.opus

<region>
hivel=42
key=D3
lovel=0
sample=Bassflute_staccatissimo_PP_D3_RR3.opus

<region>
hivel=42
key=D4
lovel=0
offset=903
sample=Bassflute_staccatissimo_PP_D4_RR3.opus

<region>
hivel=42
key=D5
lovel=0
sample=Bassflute_staccatissimo_PP_D5_RR3.opus

<region>
hivel=42
key=E3
lovel=0
offset=379
sample=Bassflute_staccatissimo_PP_E3_RR3.opus

<region>
hivel=42
key=E4
lovel=0
offset=545
sample=Bassflute_staccatissimo_PP_E4_RR3.opus

<region>
hivel=42
key=E5
lovel=0
offset=1475
sample=Bassflute_staccatissimo_PP_E5_RR3.opus

<region>
hivel=42
key=F#3
lovel=0
sample=Bassflute_staccatissimo_PP_F#3_RR3.opus

<region>
hivel=42
key=F#4
lovel=0
offset=1260
sample=Bassflute_staccatissimo_PP_F#4_RR3.opus

<region>
hivel=42
key=F#5
lovel=0
offset=222
sample=Bassflute_staccatissimo_PP_F#5_RR3.opus

<region>
hivel=42
key=F3
lovel=0
sample=Bassflute_staccatissimo_PP_F3_RR3.opus

<region>
hivel=42
key=F4
lovel=0
offset=1684
sample=Bassflute_staccatissimo_PP_F4_RR3.opus

<region>
hivel=42
key=F5
lovel=0
sample=Bassflute_staccatissimo_PP_F5_RR3.opus

<region>
hivel=42
key=G#3
lovel=0
offset=410
sample=Bassflute_staccatissimo_PP_G#3_RR3.opus

<region>
hivel=42
key=G#4
lovel=0
offset=694
sample=Bassflute_staccatissimo_PP_G#4_RR3.opus

<region>
hivel=42
key=G#5
lovel=0
offset=1794
sample=Bassflute_staccatissimo_PP_G#5_RR3.opus

<region>
hivel=42
key=G3
lovel=0
offset=238
sample=Bassflute_staccatissimo_PP_G3_RR3.opus

<region>
hivel=42
key=G4
lovel=0
sample=Bassflute_staccatissimo_PP_G4_RR3.opus

<region>
hivel=42
key=G5
lovel=0
offset=248
sample=Bassflute_staccatissimo_PP_G5_RR3.opus

<group>
group_label=RR4
seq_length=8
seq_position=4

<region>
hivel=127
key=A#3
lovel=43
offset=2312
sample=Bassflute_staccatissimo_FF_A#3_RR4.opus

<region>
hivel=127
key=A#4
lovel=43
offset=1198
sample=Bassflute_staccatissimo_FF_A#4_RR4.opus

<region>
hivel=127
key=A#5
lovel=43
offset=469
sample=Bassflute_staccatissimo_FF_A#5_RR4.opus

<region>
hivel=127
key=A3
lovel=43
offset=2746
sample=Bassflute_staccatissimo_FF_A3_RR4.opus

<region>
hivel=127
key=A4
lovel=43
offset=1799
sample=Bassflute_staccatissimo_FF_A4_RR4.opus

<region>
hivel=127
key=A5
lovel=43
offset=2439
sample=Bassflute_staccatissimo_FF_A5_RR4.opus

<region>
hivel=127
key=B3
lovel=43
offset=2612
sample=Bassflute_staccatissimo_FF_B3_RR4.opus

<region>
hivel=127
key=B4
lovel=43
offset=590
sample=Bassflute_staccatissimo_FF_B4_RR4.opus

<region>
hivel=127
key=B5
lovel=43
offset=771
sample=Bassflute_staccatissimo_FF_B5_RR4.opus

<region>
hivel=127
key=C#3
lovel=43
offset=1438
sample=Bassflute_staccatissimo_FF_C#3_RR4.opus

<region>
hivel=127
key=C#4
lovel=43
offset=971
sample=Bassflute_staccatissimo_FF_C#4_RR4.opus

<region>
hivel=127
key=C#5
lovel=43
sample=Bassflute_staccatissimo_FF_C#5_RR4.opus

<region>
hivel=127
key=C3
lovel=43
offset=1193
sample=Bassflute_staccatissimo_FF_C3_RR4.opus

<region>
hivel=127
key=C4
lovel=43
offset=2351
sample=Bassflute_staccatissimo_FF_C4_RR4.opus

<region>
hivel=127
key=C5
lovel=43
offset=294
sample=Bassflute_staccatissimo_FF_C5_RR4.opus

<region>
hivel=127
key=C6
lovel=43
offset=179
sample=Bassflute_staccatissimo_FF_C6_RR4.opus

<region>
hivel=127
key=D#3
lovel=43
offset=1891
sample=Bassflute_staccatissimo_FF_D#3_RR4.opus

<region>
hivel=127
key=D#4
lovel=43
offset=3085
sample=Bassflute_staccatissimo_FF_D#4_RR4.opus

<region>
hivel=127
key=D#5
lovel=43
offset=2012
sample=Bassflute_staccatissimo_FF_D#5_RR4.opus

<region>
hivel=127
key=D3
lovel=43
offset=2583
sample=Bassflute_staccatissimo_FF_D3_RR4.opus

<region>
hivel=127
key=D4
lovel=43
offset=2519
sample=Bassflute_staccatissimo_FF_D4_RR4.opus

<region>
hivel=127
key=D5
lovel=43
offset=2561
sample=Bassflute_staccatissimo_FF_D5_RR4.opus

<region>
hivel=127
key=E3
lovel=43
offset=1974
sample=Bassflute_staccatissimo_FF_E3_RR4.opus

<region>
hivel=127
key=E4
lovel=43
offset=3030
sample=Bassflute_staccatissimo_FF_E4_RR4.opus

<region>
hivel=127
key=E5
lovel=43
offset=3117
sample=Bassflute_staccatissimo_FF_E5_RR4.opus

<region>
hivel=127
key=F#3
lovel=43
offset=2003
sample=Bassflute_staccatissimo_FF_F#3_RR4.opus

<region>
hivel=127
key=F#4
lovel=43
offset=3105
sample=Bassflute_staccatissimo_FF_F#4_RR4.opus

<region>
hivel=127
key=F#5
lovel=43
offset=2676
sample=Bassflute_staccatissimo_FF_F#5_RR4.opus

<region>
hivel=127
key=F3
lovel=43
offset=2058
sample=Bassflute_staccatissimo_FF_F3_RR4.opus

<region>
hivel=127
key=F4
lovel=43
offset=2616
sample=Bassflute_staccatissimo_FF_F4_RR4.opus

<region>
hivel=127
key=F5
lovel=43
offset=2487
sample=Bassflute_staccatissimo_FF_F5_RR4.opus

<region>
hivel=127
key=G#3
lovel=43
offset=1503
sample=Bassflute_staccatissimo_FF_G#3_RR4.opus

<region>
hivel=127
key=G#4
lovel=43
offset=3205
sample=Bassflute_staccatissimo_FF_G#4_RR4.opus

<region>
hivel=127
key=G#5
lovel=43
offset=2245
sample=Bassflute_staccatissimo_FF_G#5_RR4.opus

<region>
hivel=127
key=G3
lovel=43
offset=1863
sample=Bassflute_staccatissimo_FF_G3_RR4.opus

<region>
hivel=127
key=G4
lovel=43
offset=2801
sample=Bassflute_staccatissimo_FF_G4_RR4.opus

<region>
hivel=127
key=G5
lovel=43
offset=574
sample=Bassflute_staccatissimo_FF_G5_RR4.opus

<region>
hivel=42
key=A#3
lovel=0
sample=Bassflute_staccatissimo_PP_A#3_RR4.opus

<region>
hivel=42
key=A#4
lovel=0
offset=1137
sample=Bassflute_staccatissimo_PP_A#4_RR4.opus

<region>
hivel=42
key=A#5
lovel=0
offset=262
sample=Bassflute_staccatissimo_PP_A#5_RR4.opus

<region>
hivel=42
key=A3
lovel=0
offset=390
sample=Bassflute_staccatissimo_PP_A3_RR4.opus

<region>
hivel=42
key=A4
lovel=0
offset=1298
sample=Bassflute_staccatissimo_PP_A4_RR4.opus

<region>
hivel=42
key=A5
lovel=0
offset=1762
sample=Bassflute_staccatissimo_PP_A5_RR4.opus

<region>
hivel=42
key=B3
lovel=0
sample=Bassflute_staccatissimo_PP_B3_RR4.opus

<region>
hivel=42
key=B4
lovel=0
offset=2263
sample=Bassflute_staccatissimo_PP_B4_RR4.opus

<region>
hivel=42
key=B5
lovel=0
offset=1019
sample=Bassflute_staccatissimo_PP_B5_RR4.opus

<region>
hivel=42
key=C#3
lovel=0
offset=457
sample=Bassflute_staccatissimo_PP_C#3_RR4.opus

<region>
hivel=42
key=C#4
lovel=0
offset=436
sample=Bassflute_staccatissimo_PP_C#4_RR4.opus

<region>
hivel=42
key=C#5
lovel=0
offset=1064
sample=Bassflute_staccatissimo_PP_C#5_RR4.opus

<region>
hivel=42
key=C3
lovel=0
sample=Bassflute_staccatissimo_PP_C3_RR4.opus

<region>
hivel=42
key=C4
lovel=0
offset=1497
sample=Bassflute_staccatissimo_PP_C4_RR4.opus

<region>
hivel=42
key=C5
lovel=0
offset=1941
sample=Bassflute_staccatissimo_PP_C5_RR4.opus

<region>
hivel=42
key=C6
lovel=0
offset=359
sample=Bassflute_staccatissimo_PP_C6_RR4.opus

<region>
hivel=42
key=D#3
lovel=0
sample=Bassflute_staccatissimo_PP_D#3_RR4.opus

<region>
hivel=42
key=D#4
lovel=0
offset=1593
sample=Bassflute_staccatissimo_PP_D#4_RR4.opus

<region>
hivel=42
key=D#5
lovel=0
offset=3074
sample=Bassflute_staccatissimo_PP_D#5_RR4.opus

<region>
hivel=42
key=D3
lovel=0
sample=Bassflute_staccatissimo_PP_D3_RR4.opus

<region>
hivel=42
key=D4
lovel=0
offset=1253
sample=Bassflute_staccatissimo_PP_D4_RR4.opus

<region>
hivel=42
key=D5
lovel=0
sample=Bassflute_staccatissimo_PP_D5_RR4.opus

<region>
hivel=42
key=E3
lovel=0
sample=Bassflute_staccatissimo_PP_E3_RR4.opus

<region>
hivel=42
key=E4
lovel=0
offset=676
sample=Bassflute_staccatissimo_PP_E4_RR4.opus

<region>
hivel=42
key=E5
lovel=0
offset=838
sample=Bassflute_staccatissimo_PP_E5_RR4.opus

<region>
hivel=42
key=F#3
lovel=0
offset=26
sample=Bassflute_staccatissimo_PP_F#3_RR4.opus

<region>
hivel=42
key=F#4
lovel=0
offset=2163
sample=Bassflute_staccatissimo_PP_F#4_RR4.opus

<region>
hivel=42
key=F#5
lovel=0
sample=Bassflute_staccatissimo_PP_F#5_RR4.opus

<region>
hivel=42
key=F3
lovel=0
sample=Bassflute_staccatissimo_PP_F3_RR4.opus

<region>
hivel=42
key=F4
lovel=0
offset=2347
sample=Bassflute_staccatissimo_PP_F4_RR4.opus

<region>
hivel=42
key=F5
lovel=0
offset=133
sample=Bassflute_staccatissimo_PP_F5_RR4.opus

<region>
hivel=42
key=G#3
lovel=0
offset=667
sample=Bassflute_staccatissimo_PP_G#3_RR4.opus

<region>
hivel=42
key=G#4
lovel=0
offset=534
sample=Bassflute_staccatissimo_PP_G#4_RR4.opus

<region>
hivel=42
key=G#5
lovel=0
offset=1722
sample=Bassflute_staccatissimo_PP_G#5_RR4.opus

<region>
hivel=42
key=G3
lovel=0
offset=249
sample=Bassflute_staccatissimo_PP_G3_RR4.opus

<region>
hivel=42
key=G4
lovel=0
sample=Bassflute_staccatissimo_PP_G4_RR4.opus

<region>
hivel=42
key=G5
lovel=0
offset=884
sample=Bassflute_staccatissimo_PP_G5_RR4.opus

<group>
group_label=RR5
seq_length=8
seq_position=5

<region>
hivel=127
key=A#3
lovel=43
offset=2260
sample=Bassflute_staccatissimo_FF_A#3_RR5.opus

<region>
hivel=127
key=A#4
lovel=43
offset=534
sample=Bassflute_staccatissimo_FF_A#4_RR5.opus

<region>
hivel=127
key=A#5
lovel=43
offset=590
sample=Bassflute_staccatissimo_FF_A#5_RR5.opus

<region>
hivel=127
key=A3
lovel=43
offset=3206
sample=Bassflute_staccatissimo_FF_A3_RR5.opus

<region>
hivel=127
key=A4
lovel=43
offset=912
sample=Bassflute_staccatissimo_FF_A4_RR5.opus

<region>
hivel=127
key=A5
lovel=43
offset=1242
sample=Bassflute_staccatissimo_FF_A5_RR5.opus

<region>
hivel=127
key=B3
lovel=43
offset=2128
sample=Bassflute_staccatissimo_FF_B3_RR5.opus

<region>
hivel=127
key=B4
lovel=43
offset=389
sample=Bassflute_staccatissimo_FF_B4_RR5.opus

<region>
hivel=127
key=B5
lovel=43
offset=3570
sample=Bassflute_staccatissimo_FF_B5_RR5.opus

<region>
hivel=127
key=C#3
lovel=43
offset=2165
sample=Bassflute_staccatissimo_FF_C#3_RR5.opus

<region>
hivel=127
key=C#4
lovel=43
offset=1109
sample=Bassflute_staccatissimo_FF_C#4_RR5.opus

<region>
hivel=127
key=C#5
lovel=43
sample=Bassflute_staccatissimo_FF_C#5_RR5.opus

<region>
hivel=127
key=C3
lovel=43
offset=1179
sample=Bassflute_staccatissimo_FF_C3_RR5.opus

<region>
hivel=127
key=C4
lovel=43
offset=1923
sample=Bassflute_staccatissimo_FF_C4_RR5.opus

<region>
hivel=127
key=C5
lovel=43
offset=237
sample=Bassflute_staccatissimo_FF_C5_RR5.opus

<region>
hivel=127
key=C6
lovel=43
offset=585
sample=Bassflute_staccatissimo_FF_C6_RR5.opus

<region>
hivel=127
key=D#3
lovel=43
offset=2036
sample=Bassflute_staccatissimo_FF_D#3_RR5.opus

<region>
hivel=127
key=D#4
lovel=43
offset=3769
sample=Bassflute_staccatissimo_FF_D#4_RR5.opus

<region>
hivel=127
key=D#5
lovel=43
offset=1077
sample=Bassflute_staccatissimo_FF_D#5_RR5.opus

<region>
hivel=127
key=D3
lovel=43
offset=2571
sample=Bassflute_staccatissimo_FF_D3_RR5.opus

<region>
hivel=127
key=D4
lovel=43
offset=2847
sample=Bassflute_staccatissimo_FF_D4_RR5.opus

<region>
hivel=127
key=D5
lovel=43
offset=1567
sample=Bassflute_staccatissimo_FF_D5_RR5.opus

<region>
hivel=127
key=E3
lovel=43
offset=2899
sample=Bassflute_staccatissimo_FF_E3_RR5.opus

<region>
hivel=127
key=E4
lovel=43
offset=3970
sample=Bassflute_staccatissimo_FF_E4_RR5.opus

<region>
hivel=127
key=E5
lovel=43
offset=2156
sample=Bassflute_staccatissimo_FF_E5_RR5.opus

<region>
hivel=127
key=F#3
lovel=43
offset=1700
sample=Bassflute_staccatissimo_FF_F#3_RR5.opus

<region>
hivel=127
key=F#4
lovel=43
offset=2819
sample=Bassflute_staccatissimo_FF_F#4_RR5.opus

<region>
hivel=127
key=F#5
lovel=43
offset=3452
sample=Bassflute_staccatissimo_FF_F#5_RR5.opus

<region>
hivel=127
key=F3
lovel=43
offset=1515
sample=Bassflute_staccatissimo_FF_F3_RR5.opus

<region>
hivel=127
key=F4
lovel=43
offset=1917
sample=Bassflute_staccatissimo_FF_F4_RR5.opus

<region>
hivel=127
key=F5
lovel=43
offset=1446
sample=Bassflute_staccatissimo_FF_F5_RR5.opus

<region>
hivel=127
key=G#3
lovel=43
offset=1289
sample=Bassflute_staccatissimo_FF_G#3_RR5.opus

<region>
hivel=127
key=G#4
lovel=43
offset=3158
sample=Bassflute_staccatissimo_FF_G#4_RR5.opus

<region>
hivel=127
key=G#5
lovel=43
offset=2462
sample=Bassflute_staccatissimo_FF_G#5_RR5.opus

<region>
hivel=127
key=G3
lovel=43
offset=1620
sample=Bassflute_staccatissimo_FF_G3_RR5.opus

<region>
hivel=127
key=G4
lovel=43
offset=3444
sample=Bassflute_staccatissimo_FF_G4_RR5.opus

<region>
hivel=127
key=G5
lovel=43
offset=68
sample=Bassflute_staccatissimo_FF_G5_RR5.opus

<region>
hivel=42
key=A#3
lovel=0
offset=991
sample=Bassflute_staccatissimo_PP_A#3_RR5.opus

<region>
hivel=42
key=A#4
lovel=0
offset=1950
sample=Bassflute_staccatissimo_PP_A#4_RR5.opus

<region>
hivel=42
key=A#5
lovel=0
offset=363
sample=Bassflute_staccatissimo_PP_A#5_RR5.opus

<region>
hivel=42
key=A3
lovel=0
offset=595
sample=Bassflute_staccatissimo_PP_A3_RR5.opus

<region>
hivel=42
key=A4
lovel=0
offset=1481
sample=Bassflute_staccatissimo_PP_A4_RR5.opus

<region>
hivel=42
key=A5
lovel=0
offset=1334
sample=Bassflute_staccatissimo_PP_A5_RR5.opus

<region>
hivel=42
key=B3
lovel=0
sample=Bassflute_staccatissimo_PP_B3_RR5.opus

<region>
hivel=42
key=B4
lovel=0
offset=1675
sample=Bassflute_staccatissimo_PP_B4_RR5.opus

<region>
hivel=42
key=B5
lovel=0
offset=640
sample=Bassflute_staccatissimo_PP_B5_RR5.opus

<region>
hivel=42
key=C#3
lovel=0
sample=Bassflute_staccatissimo_PP_C#3_RR5.opus

<region>
hivel=42
key=C#4
lovel=0
offset=202
sample=Bassflute_staccatissimo_PP_C#4_RR5.opus

<region>
hivel=42
key=C#5
lovel=0
offset=262
sample=Bassflute_staccatissimo_PP_C#5_RR5.opus

<region>
hivel=42
key=C3
lovel=0
sample=Bassflute_staccatissimo_PP_C3_RR5.opus

<region>
hivel=42
key=C4
lovel=0
offset=679
sample=Bassflute_staccatissimo_PP_C4_RR5.opus

<region>
hivel=42
key=C5
lovel=0
offset=1312
sample=Bassflute_staccatissimo_PP_C5_RR5.opus

<region>
hivel=42
key=C6
lovel=0
offset=365
sample=Bassflute_staccatissimo_PP_C6_RR5.opus

<region>
hivel=42
key=D#3
lovel=0
sample=Bassflute_staccatissimo_PP_D#3_RR5.opus

<region>
hivel=42
key=D#4
lovel=0
offset=1201
sample=Bassflute_staccatissimo_PP_D#4_RR5.opus

<region>
hivel=42
key=D#5
lovel=0
offset=3542
sample=Bassflute_staccatissimo_PP_D#5_RR5.opus

<region>
hivel=42
key=D3
lovel=0
sample=Bassflute_staccatissimo_PP_D3_RR5.opus

<region>
hivel=42
key=D4
lovel=0
offset=2128
sample=Bassflute_staccatissimo_PP_D4_RR5.opus

<region>
hivel=42
key=D5
lovel=0
sample=Bassflute_staccatissimo_PP_D5_RR5.opus

<region>
hivel=42
key=E3
lovel=0
sample=Bassflute_staccatissimo_PP_E3_RR5.opus

<region>
hivel=42
key=E4
lovel=0
offset=1855
sample=Bassflute_staccatissimo_PP_E4_RR5.opus

<region>
hivel=42
key=E5
lovel=0
offset=927
sample=Bassflute_staccatissimo_PP_E5_RR5.opus

<region>
hivel=42
key=F#3
lovel=0
sample=Bassflute_staccatissimo_PP_F#3_RR5.opus

<region>
hivel=42
key=F#4
lovel=0
offset=1343
sample=Bassflute_staccatissimo_PP_F#4_RR5.opus

<region>
hivel=42
key=F#5
lovel=0
sample=Bassflute_staccatissimo_PP_F#5_RR5.opus

<region>
hivel=42
key=F3
lovel=0
sample=Bassflute_staccatissimo_PP_F3_RR5.opus

<region>
hivel=42
key=F4
lovel=0
offset=1331
sample=Bassflute_staccatissimo_PP_F4_RR5.opus

<region>
hivel=42
key=F5
lovel=0
sample=Bassflute_staccatissimo_PP_F5_RR5.opus

<region>
hivel=42
key=G#3
lovel=0
offset=855
sample=Bassflute_staccatissimo_PP_G#3_RR5.opus

<region>
hivel=42
key=G#4
lovel=0
offset=2070
sample=Bassflute_staccatissimo_PP_G#4_RR5.opus

<region>
hivel=42
key=G#5
lovel=0
offset=1402
sample=Bassflute_staccatissimo_PP_G#5_RR5.opus

<region>
hivel=42
key=G3
lovel=0
offset=33
sample=Bassflute_staccatissimo_PP_G3_RR5.opus

<region>
hivel=42
key=G4
lovel=0
offset=15
sample=Bassflute_staccatissimo_PP_G4_RR5.opus

<region>
hivel=42
key=G5
lovel=0
offset=295
sample=Bassflute_staccatissimo_PP_G5_RR5.opus

<group>
group_label=RR6
seq_length=8
seq_position=6

<region>
hivel=127
key=A#3
lovel=43
offset=2115
sample=Bassflute_staccatissimo_FF_A#3_RR6.opus

<region>
hivel=127
key=A#4
lovel=43
offset=1252
sample=Bassflute_staccatissimo_FF_A#4_RR6.opus

<region>
hivel=127
key=A#5
lovel=43
offset=176
sample=Bassflute_staccatissimo_FF_A#5_RR6.opus

<region>
hivel=127
key=A3
lovel=43
offset=2195
sample=Bassflute_staccatissimo_FF_A3_RR6.opus

<region>
hivel=127
key=A4
lovel=43
offset=2163
sample=Bassflute_staccatissimo_FF_A4_RR6.opus

<region>
hivel=127
key=A5
lovel=43
offset=1042
sample=Bassflute_staccatissimo_FF_A5_RR6.opus

<region>
hivel=127
key=B3
lovel=43
offset=2134
sample=Bassflute_staccatissimo_FF_B3_RR6.opus

<region>
hivel=127
key=B4
lovel=43
offset=781
sample=Bassflute_staccatissimo_FF_B4_RR6.opus

<region>
hivel=127
key=B5
lovel=43
offset=3518
sample=Bassflute_staccatissimo_FF_B5_RR6.opus

<region>
hivel=127
key=C#3
lovel=43
offset=1798
sample=Bassflute_staccatissimo_FF_C#3_RR6.opus

<region>
hivel=127
key=C#4
lovel=43
offset=1463
sample=Bassflute_staccatissimo_FF_C#4_RR6.opus

<region>
hivel=127
key=C#5
lovel=43
sample=Bassflute_staccatissimo_FF_C#5_RR6.opus

<region>
hivel=127
key=C3
lovel=43
offset=1212
sample=Bassflute_staccatissimo_FF_C3_RR6.opus

<region>
hivel=127
key=C4
lovel=43
offset=2008
sample=Bassflute_staccatissimo_FF_C4_RR6.opus

<region>
hivel=127
key=C5
lovel=43
offset=29
sample=Bassflute_staccatissimo_FF_C5_RR6.opus

<region>
hivel=127
key=C6
lovel=43
offset=1160
sample=Bassflute_staccatissimo_FF_C6_RR6.opus

<region>
hivel=127
key=D#3
lovel=43
offset=2087
sample=Bassflute_staccatissimo_FF_D#3_RR6.opus

<region>
hivel=127
key=D#4
lovel=43
offset=4235
sample=Bassflute_staccatissimo_FF_D#4_RR6.opus

<region>
hivel=127
key=D#5
lovel=43
offset=1638
sample=Bassflute_staccatissimo_FF_D#5_RR6.opus

<region>
hivel=127
key=D3
lovel=43
offset=2550
sample=Bassflute_staccatissimo_FF_D3_RR6.opus

<region>
hivel=127
key=D4
lovel=43
offset=2513
sample=Bassflute_staccatissimo_FF_D4_RR6.opus

<region>
hivel=127
key=D5
lovel=43
offset=1533
sample=Bassflute_staccatissimo_FF_D5_RR6.opus

<region>
hivel=127
key=E3
lovel=43
offset=1646
sample=Bassflute_staccatissimo_FF_E3_RR6.opus

<region>
hivel=127
key=E4
lovel=43
offset=3488
sample=Bassflute_staccatissimo_FF_E4_RR6.opus

<region>
hivel=127
key=E5
lovel=43
offset=2917
sample=Bassflute_staccatissimo_FF_E5_RR6.opus

<region>
hivel=127
key=F#3
lovel=43
offset=1750
sample=Bassflute_staccatissimo_FF_F#3_RR6.opus

<region>
hivel=127
key=F#4
lovel=43
offset=2059
sample=Bassflute_staccatissimo_FF_F#4_RR6.opus

<region>
hivel=127
key=F#5
lovel=43
offset=933
sample=Bassflute_staccatissimo_FF_F#5_RR6.opus

<region>
hivel=127
key=F3
lovel=43
offset=1779
sample=Bassflute_staccatissimo_FF_F3_RR6.opus

<region>
hivel=127
key=F4
lovel=43
offset=3509
sample=Bassflute_staccatissimo_FF_F4_RR6.opus

<region>
hivel=127
key=F5
lovel=43
offset=1475
sample=Bassflute_staccatissimo_FF_F5_RR6.opus

<region>
hivel=127
key=G#3
lovel=43
offset=1712
sample=Bassflute_staccatissimo_FF_G#3_RR6.opus

<region>
hivel=127
key=G#4
lovel=43
offset=3636
sample=Bassflute_staccatissimo_FF_G#4_RR6.opus

<region>
hivel=127
key=G#5
lovel=43
offset=3730
sample=Bassflute_staccatissimo_FF_G#5_RR6.opus

<region>
hivel=127
key=G3
lovel=43
offset=1571
sample=Bassflute_staccatissimo_FF_G3_RR6.opus

<region>
hivel=127
key=G4
lovel=43
offset=3985
sample=Bassflute_staccatissimo_FF_G4_RR6.opus

<region>
hivel=127
key=G5
lovel=43
offset=1008
sample=Bassflute_staccatissimo_FF_G5_RR6.opus

<region>
hivel=42
key=A#3
lovel=0
offset=155
sample=Bassflute_staccatissimo_PP_A#3_RR6.opus

<region>
hivel=42
key=A#4
lovel=0
offset=2163
sample=Bassflute_staccatissimo_PP_A#4_RR6.opus

<region>
hivel=42
key=A#5
lovel=0
offset=158
sample=Bassflute_staccatissimo_PP_A#5_RR6.opus

<region>
hivel=42
key=A3
lovel=0
offset=377
sample=Bassflute_staccatissimo_PP_A3_RR6.opus

<region>
hivel=42
key=A4
lovel=0
offset=987
sample=Bassflute_staccatissimo_PP_A4_RR6.opus

<region>
hivel=42
key=A5
lovel=0
offset=1750
sample=Bassflute_staccatissimo_PP_A5_RR6.opus

<region>
hivel=42
key=B3
lovel=0
sample=Bassflute_staccatissimo_PP_B3_RR6.opus

<region>
hivel=42
key=B4
lovel=0
offset=1695
sample=Bassflute_staccatissimo_PP_B4_RR6.opus

<region>
hivel=42
key=B5
lovel=0
offset=1764
sample=Bassflute_staccatissimo_PP_B5_RR6.opus

<region>
hivel=42
key=C#3
lovel=0
sample=Bassflute_staccatissimo_PP_C#3_RR6.opus

<region>
hivel=42
key=C#4
lovel=0
offset=235
sample=Bassflute_staccatissimo_PP_C#4_RR6.opus

<region>
hivel=42
key=C#5
lovel=0
offset=488
sample=Bassflute_staccatissimo_PP_C#5_RR6.opus

<region>
hivel=42
key=C3
lovel=0
sample=Bassflute_staccatissimo_PP_C3_RR6.opus

<region>
hivel=42
key=C4
lovel=0
offset=1659
sample=Bassflute_staccatissimo_PP_C4_RR6.opus

<region>
hivel=42
key=C5
lovel=0
offset=436
sample=Bassflute_staccatissimo_PP_C5_RR6.opus

<region>
hivel=42
key=C6
lovel=0
offset=93
sample=Bassflute_staccatissimo_PP_C6_RR6.opus

<region>
hivel=42
key=D#3
lovel=0
sample=Bassflute_staccatissimo_PP_D#3_RR6.opus

<region>
hivel=42
key=D#4
lovel=0
sample=Bassflute_staccatissimo_PP_D#4_RR6.opus

<region>
hivel=42
key=D#5
lovel=0
offset=2724
sample=Bassflute_staccatissimo_PP_D#5_RR6.opus

<region>
hivel=42
key=D3
lovel=0
sample=Bassflute_staccatissimo_PP_D3_RR6.opus

<region>
hivel=42
key=D4
lovel=0
offset=1269
sample=Bassflute_staccatissimo_PP_D4_RR6.opus

<region>
hivel=42
key=D5
lovel=0
offset=409
sample=Bassflute_staccatissimo_PP_D5_RR6.opus

<region>
hivel=42
key=E3
lovel=0
offset=639
sample=Bassflute_staccatissimo_PP_E3_RR6.opus

<region>
hivel=42
key=E4
lovel=0
offset=1221
sample=Bassflute_staccatissimo_PP_E4_RR6.opus

<region>
hivel=42
key=E5
lovel=0
offset=761
sample=Bassflute_staccatissimo_PP_E5_RR6.opus

<region>
hivel=42
key=F#3
lovel=0
sample=Bassflute_staccatissimo_PP_F#3_RR6.opus

<region>
hivel=42
key=F#4
lovel=0
offset=1405
sample=Bassflute_staccatissimo_PP_F#4_RR6.opus

<region>
hivel=42
key=F#5
lovel=0
offset=127
sample=Bassflute_staccatissimo_PP_F#5_RR6.opus

<region>
hivel=42
key=F3
lovel=0
sample=Bassflute_staccatissimo_PP_F3_RR6.opus

<region>
hivel=42
key=F4
lovel=0
offset=1064
sample=Bassflute_staccatissimo_PP_F4_RR6.opus

<region>
hivel=42
key=F5
lovel=0
offset=12
sample=Bassflute_staccatissimo_PP_F5_RR6.opus

<region>
hivel=42
key=G#3
lovel=0
offset=446
sample=Bassflute_staccatissimo_PP_G#3_RR6.opus

<region>
hivel=42
key=G#4
lovel=0
offset=1995
sample=Bassflute_staccatissimo_PP_G#4_RR6.opus

<region>
hivel=42
key=G#5
lovel=0
offset=1953
sample=Bassflute_staccatissimo_PP_G#5_RR6.opus

<region>
hivel=42
key=G3
lovel=0
sample=Bassflute_staccatissimo_PP_G3_RR6.opus

<region>
hivel=42
key=G4
lovel=0
sample=Bassflute_staccatissimo_PP_G4_RR6.opus

<region>
hivel=42
key=G5
lovel=0
offset=208
sample=Bassflute_staccatissimo_PP_G5_RR6.opus

<group>
group_label=RR7
seq_length=8
seq_position=7

<region>
hivel=127
key=A#3
lovel=43
offset=1976
sample=Bassflute_staccatissimo_FF_A#3_RR7.opus

<region>
hivel=127
key=A#4
lovel=43
offset=1419
sample=Bassflute_staccatissimo_FF_A#4_RR7.opus

<region>
hivel=127
key=A#5
lovel=43
offset=670
sample=Bassflute_staccatissimo_FF_A#5_RR7.opus

<region>
hivel=127
key=A3
lovel=43
offset=2421
sample=Bassflute_staccatissimo_FF_A3_RR7.opus

<region>
hivel=127
key=A4
lovel=43
offset=1909
sample=Bassflute_staccatissimo_FF_A4_RR7.opus

<region>
hivel=127
key=A5
lovel=43
offset=867
sample=Bassflute_staccatissimo_FF_A5_RR7.opus

<region>
hivel=127
key=B3
lovel=43
offset=3279
sample=Bassflute_staccatissimo_FF_B3_RR7.opus

<region>
hivel=127
key=B4
lovel=43
offset=1000
sample=Bassflute_staccatissimo_FF_B4_RR7.opus

<region>
hivel=127
key=B5
lovel=43
offset=2630
sample=Bassflute_staccatissimo_FF_B5_RR7.opus

<region>
hivel=127
key=C#3
lovel=43
offset=2148
sample=Bassflute_staccatissimo_FF_C#3_RR7.opus

<region>
hivel=127
key=C#4
lovel=43
offset=760
sample=Bassflute_staccatissimo_FF_C#4_RR7.opus

<region>
hivel=127
key=C#5
lovel=43
sample=Bassflute_staccatissimo_FF_C#5_RR7.opus

<region>
hivel=127
key=C3
lovel=43
offset=2172
sample=Bassflute_staccatissimo_FF_C3_RR7.opus

<region>
hivel=127
key=C4
lovel=43
offset=1903
sample=Bassflute_staccatissimo_FF_C4_RR7.opus

<region>
hivel=127
key=C5
lovel=43
offset=100
sample=Bassflute_staccatissimo_FF_C5_RR7.opus

<region>
hivel=127
key=C6
lovel=43
offset=301
sample=Bassflute_staccatissimo_FF_C6_RR7.opus

<region>
hivel=127
key=D#3
lovel=43
offset=1897
sample=Bassflute_staccatissimo_FF_D#3_RR7.opus

<region>
hivel=127
key=D#4
lovel=43
offset=3588
sample=Bassflute_staccatissimo_FF_D#4_RR7.opus

<region>
hivel=127
key=D#5
lovel=43
offset=2123
sample=Bassflute_staccatissimo_FF_D#5_RR7.opus

<region>
hivel=127
key=D3
lovel=43
offset=2904
sample=Bassflute_staccatissimo_FF_D3_RR7.opus

<region>
hivel=127
key=D4
lovel=43
offset=2466
sample=Bassflute_staccatissimo_FF_D4_RR7.opus

<region>
hivel=127
key=D5
lovel=43
offset=1819
sample=Bassflute_staccatissimo_FF_D5_RR7.opus

<region>
hivel=127
key=E3
lovel=43
offset=2289
sample=Bassflute_staccatissimo_FF_E3_RR7.opus

<region>
hivel=127
key=E4
lovel=43
offset=2847
sample=Bassflute_staccatissimo_FF_E4_RR7.opus

<region>
hivel=127
key=E5
lovel=43
offset=3191
sample=Bassflute_staccatissimo_FF_E5_RR7.opus

<region>
hivel=127
key=F#3
lovel=43
offset=2021
sample=Bassflute_staccatissimo_FF_F#3_RR7.opus

<region>
hivel=127
key=F#4
lovel=43
offset=2254
sample=Bassflute_staccatissimo_FF_F#4_RR7.opus

<region>
hivel=127
key=F#5
lovel=43
offset=2507
sample=Bassflute_staccatissimo_FF_F#5_RR7.opus

<region>
hivel=127
key=F3
lovel=43
offset=1228
sample=Bassflute_staccatissimo_FF_F3_RR7.opus

<region>
hivel=127
key=F4
lovel=43
offset=2068
sample=Bassflute_staccatissimo_FF_F4_RR7.opus

<region>
hivel=127
key=F5
lovel=43
offset=1186
sample=Bassflute_staccatissimo_FF_F5_RR7.opus

<region>
hivel=127
key=G#3
lovel=43
offset=1511
sample=Bassflute_staccatissimo_FF_G#3_RR7.opus

<region>
hivel=127
key=G#4
lovel=43
offset=4095
sample=Bassflute_staccatissimo_FF_G#4_RR7.opus

<region>
hivel=127
key=G#5
lovel=43
offset=4067
sample=Bassflute_staccatissimo_FF_G#5_RR7.opus

<region>
hivel=127
key=G3
lovel=43
offset=1850
sample=Bassflute_staccatissimo_FF_G3_RR7.opus

<region>
hivel=127
key=G4
lovel=43
offset=4511
sample=Bassflute_staccatissimo_FF_G4_RR7.opus

<region>
hivel=127
key=G5
lovel=43
offset=580
sample=Bassflute_staccatissimo_FF_G5_RR7.opus

<region>
hivel=42
key=A#3
lovel=0
offset=344
sample=Bassflute_staccatissimo_PP_A#3_RR7.opus

<region>
hivel=42
key=A#4
lovel=0
offset=2132
sample=Bassflute_staccatissimo_PP_A#4_RR7.opus

<region>
hivel=42
key=A#5
lovel=0
offset=405
sample=Bassflute_staccatissimo_PP_A#5_RR7.opus

<region>
hivel=42
key=A3
lovel=0
sample=Bassflute_staccatissimo_PP_A3_RR7.opus

<region>
hivel=42
key=A4
lovel=0
offset=659
sample=Bassflute_staccatissimo_PP_A4_RR7.opus

<region>
hivel=42
key=A5
lovel=0
offset=4195
sample=Bassflute_staccatissimo_PP_A5_RR7.opus

<region>
hivel=42
key=B3
lovel=0
sample=Bassflute_staccatissimo_PP_B3_RR7.opus

<region>
hivel=42
key=B4
lovel=0
offset=2468
sample=Bassflute_staccatissimo_PP_B4_RR7.opus

<region>
hivel=42
key=B5
lovel=0
offset=2737
sample=Bassflute_staccatissimo_PP_B5_RR7.opus

<region>
hivel=42
key=C#3
lovel=0
sample=Bassflute_staccatissimo_PP_C#3_RR7.opus

<region>
hivel=42
key=C#4
lovel=0
offset=544
sample=Bassflute_staccatissimo_PP_C#4_RR7.opus

<region>
hivel=42
key=C#5
lovel=0
sample=Bassflute_staccatissimo_PP_C#5_RR7.opus

<region>
hivel=42
key=C3
lovel=0
sample=Bassflute_staccatissimo_PP_C3_RR7.opus

<region>
hivel=42
key=C4
lovel=0
offset=1423
sample=Bassflute_staccatissimo_PP_C4_RR7.opus

<region>
hivel=42
key=C5
lovel=0
offset=1099
sample=Bassflute_staccatissimo_PP_C5_RR7.opus

<region>
hivel=42
key=C6
lovel=0
offset=771
sample=Bassflute_staccatissimo_PP_C6_RR7.opus

<region>
hivel=42
key=D#3
lovel=0
sample=Bassflute_staccatissimo_PP_D#3_RR7.opus

<region>
hivel=42
key=D#4
lovel=0
sample=Bassflute_staccatissimo_PP_D#4_RR7.opus

<region>
hivel=42
key=D#5
lovel=0
offset=19
sample=Bassflute_staccatissimo_PP_D#5_RR7.opus

<region>
hivel=42
key=D3
lovel=0
sample=Bassflute_staccatissimo_PP_D3_RR7.opus

<region>
hivel=42
key=D4
lovel=0
offset=1722
sample=Bassflute_staccatissimo_PP_D4_RR7.opus

<region>
hivel=42
key=D5
lovel=0
offset=343
sample=Bassflute_staccatissimo_PP_D5_RR7.opus

<region>
hivel=42
key=E3
lovel=0
offset=66
sample=Bassflute_staccatissimo_PP_E3_RR7.opus

<region>
hivel=42
key=E4
lovel=0
sample=Bassflute_staccatissimo_PP_E4_RR7.opus

<region>
hivel=42
key=E5
lovel=0
offset=1543
sample=Bassflute_staccatissimo_PP_E5_RR7.opus

<region>
hivel=42
key=F#3
lovel=0
sample=Bassflute_staccatissimo_PP_F#3_RR7.opus

<region>
hivel=42
key=F#4
lovel=0
offset=615
sample=Bassflute_staccatissimo_PP_F#4_RR7.opus

<region>
hivel=42
key=F#5
lovel=0
sample=Bassflute_staccatissimo_PP_F#5_RR7.opus

<region>
hivel=42
key=F3
lovel=0
sample=Bassflute_staccatissimo_PP_F3_RR7.opus

<region>
hivel=42
key=F4
lovel=0
offset=1641
sample=Bassflute_staccatissimo_PP_F4_RR7.opus

<region>
hivel=42
key=F5
lovel=0
sample=Bassflute_staccatissimo_PP_F5_RR7.opus

<region>
hivel=42
key=G#3
lovel=0
offset=896
sample=Bassflute_staccatissimo_PP_G#3_RR7.opus

<region>
hivel=42
key=G#4
lovel=0
offset=1561
sample=Bassflute_staccatissimo_PP_G#4_RR7.opus

<region>
hivel=42
key=G#5
lovel=0
offset=1980
sample=Bassflute_staccatissimo_PP_G#5_RR7.opus

<region>
hivel=42
key=G3
lovel=0
sample=Bassflute_staccatissimo_PP_G3_RR7.opus

<region>
hivel=42
key=G4
lovel=0
offset=44
sample=Bassflute_staccatissimo_PP_G4_RR7.opus

<region>
hivel=42
key=G5
lovel=0
offset=783
sample=Bassflute_staccatissimo_PP_G5_RR7.opus

<group>
group_label=RR8
seq_length=8
seq_position=8

<region>
hivel=127
key=A#3
lovel=43
offset=2026
sample=Bassflute_staccatissimo_FF_A#3_RR8.opus

<region>
hivel=127
key=A#4
lovel=43
offset=2039
sample=Bassflute_staccatissimo_FF_A#4_RR8.opus

<region>
hivel=127
key=A#5
lovel=43
offset=888
sample=Bassflute_staccatissimo_FF_A#5_RR8.opus

<region>
hivel=127
key=A3
lovel=43
offset=2031
sample=Bassflute_staccatissimo_FF_A3_RR8.opus

<region>
hivel=127
key=A4
lovel=43
offset=2104
sample=Bassflute_staccatissimo_FF_A4_RR8.opus

<region>
hivel=127
key=A5
lovel=43
offset=3816
sample=Bassflute_staccatissimo_FF_A5_RR8.opus

<region>
hivel=127
key=B3
lovel=43
offset=3297
sample=Bassflute_staccatissimo_FF_B3_RR8.opus

<region>
hivel=127
key=B4
lovel=43
offset=843
sample=Bassflute_staccatissimo_FF_B4_RR8.opus

<region>
hivel=127
key=B5
lovel=43
offset=3041
sample=Bassflute_staccatissimo_FF_B5_RR8.opus

<region>
hivel=127
key=C#3
lovel=43
offset=2172
sample=Bassflute_staccatissimo_FF_C#3_RR8.opus

<region>
hivel=127
key=C#4
lovel=43
offset=1367
sample=Bassflute_staccatissimo_FF_C#4_RR8.opus

<region>
hivel=127
key=C#5
lovel=43
sample=Bassflute_staccatissimo_FF_C#5_RR8.opus

<region>
hivel=127
key=C3
lovel=43
offset=2558
sample=Bassflute_staccatissimo_FF_C3_RR8.opus

<region>
hivel=127
key=C4
lovel=43
offset=2929
sample=Bassflute_staccatissimo_FF_C4_RR8.opus

<region>
hivel=127
key=C5
lovel=43
offset=245
sample=Bassflute_staccatissimo_FF_C5_RR8.opus

<region>
hivel=127
key=C6
lovel=43
offset=218
sample=Bassflute_staccatissimo_FF_C6_RR8.opus

<region>
hivel=127
key=D#3
lovel=43
offset=2399
sample=Bassflute_staccatissimo_FF_D#3_RR8.opus

<region>
hivel=127
key=D#4
lovel=43
offset=4708
sample=Bassflute_staccatissimo_FF_D#4_RR8.opus

<region>
hivel=127
key=D#5
lovel=43
offset=792
sample=Bassflute_staccatissimo_FF_D#5_RR8.opus

<region>
hivel=127
key=D3
lovel=43
offset=1816
sample=Bassflute_staccatissimo_FF_D3_RR8.opus

<region>
hivel=127
key=D4
lovel=43
offset=1825
sample=Bassflute_staccatissimo_FF_D4_RR8.opus

<region>
hivel=127
key=D5
lovel=43
offset=1136
sample=Bassflute_staccatissimo_FF_D5_RR8.opus

<region>
hivel=127
key=E3
lovel=43
offset=2851
sample=Bassflute_staccatissimo_FF_E3_RR8.opus

<region>
hivel=127
key=E4
lovel=43
offset=3527
sample=Bassflute_staccatissimo_FF_E4_RR8.opus

<region>
hivel=127
key=E5
lovel=43
offset=3669
sample=Bassflute_staccatissimo_FF_E5_RR8.opus

<region>
hivel=127
key=F#3
lovel=43
offset=1953
sample=Bassflute_staccatissimo_FF_F#3_RR8.opus

<region>
hivel=127
key=F#4
lovel=43
offset=3015
sample=Bassflute_staccatissimo_FF_F#4_RR8.opus

<region>
hivel=127
key=F#5
lovel=43
offset=1782
sample=Bassflute_staccatissimo_FF_F#5_RR8.opus

<region>
hivel=127
key=F3
lovel=43
offset=2074
sample=Bassflute_staccatissimo_FF_F3_RR8.opus

<region>
hivel=127
key=F4
lovel=43
offset=2059
sample=Bassflute_staccatissimo_FF_F4_RR8.opus

<region>
hivel=127
key=F5
lovel=43
offset=3330
sample=Bassflute_staccatissimo_FF_F5_RR8.opus

<region>
hivel=127
key=G#3
lovel=43
offset=1494
sample=Bassflute_staccatissimo_FF_G#3_RR8.opus

<region>
hivel=127
key=G#4
lovel=43
offset=2738
sample=Bassflute_staccatissimo_FF_G#4_RR8.opus

<region>
hivel=127
key=G#5
lovel=43
offset=2466
sample=Bassflute_staccatissimo_FF_G#5_RR8.opus

<region>
hivel=127
key=G3
lovel=43
offset=1363
sample=Bassflute_staccatissimo_FF_G3_RR8.opus

<region>
hivel=127
key=G4
lovel=43
offset=3078
sample=Bassflute_staccatissimo_FF_G4_RR8.opus

<region>
hivel=127
key=G5
lovel=43
sample=Bassflute_staccatissimo_FF_G5_RR8.opus

<region>
hivel=42
key=A#3
lovel=0
offset=374
sample=Bassflute_staccatissimo_PP_A#3_RR8.opus

<region>
hivel=42
key=A#4
lovel=0
offset=2163
sample=Bassflute_staccatissimo_PP_A#4_RR8.opus

<region>
hivel=42
key=A#5
lovel=0
offset=1162
sample=Bassflute_staccatissimo_PP_A#5_RR8.opus

<region>
hivel=42
key=A3
lovel=0
offset=389
sample=Bassflute_staccatissimo_PP_A3_RR8.opus

<region>
hivel=42
key=A4
lovel=0
offset=964
sample=Bassflute_staccatissimo_PP_A4_RR8.opus

<region>
hivel=42
key=A5
lovel=0
offset=1420
sample=Bassflute_staccatissimo_PP_A5_RR8.opus

<region>
hivel=42
key=B3
lovel=0
sample=Bassflute_staccatissimo_PP_B3_RR8.opus

<region>
hivel=42
key=B4
lovel=0
offset=77
sample=Bassflute_staccatissimo_PP_B4_RR8.opus

<region>
hivel=42
key=B5
lovel=0
offset=1500
sample=Bassflute_staccatissimo_PP_B5_RR8.opus

<region>
hivel=42
key=C#3
lovel=0
sample=Bassflute_staccatissimo_PP_C#3_RR8.opus

<region>
hivel=42
key=C#4
lovel=0
offset=23
sample=Bassflute_staccatissimo_PP_C#4_RR8.opus

<region>
hivel=42
key=C#5
lovel=0
offset=160
sample=Bassflute_staccatissimo_PP_C#5_RR8.opus

<region>
hivel=42
key=C3
lovel=0
sample=Bassflute_staccatissimo_PP_C3_RR8.opus

<region>
hivel=42
key=C4
lovel=0
offset=785
sample=Bassflute_staccatissimo_PP_C4_RR8.opus

<region>
hivel=42
key=C5
lovel=0
offset=1201
sample=Bassflute_staccatissimo_PP_C5_RR8.opus

<region>
hivel=42
key=C6
lovel=0
offset=1784
sample=Bassflute_staccatissimo_PP_C6_RR8.opus

<region>
hivel=42
key=D#3
lovel=0
sample=Bassflute_staccatissimo_PP_D#3_RR8.opus

<region>
hivel=42
key=D#4
lovel=0
sample=Bassflute_staccatissimo_PP_D#4_RR8.opus

<region>
hivel=42
key=D#5
lovel=0
offset=644
sample=Bassflute_staccatissimo_PP_D#5_RR8.opus

<region>
hivel=42
key=D3
lovel=0
sample=Bassflute_staccatissimo_PP_D3_RR8.opus

<region>
hivel=42
key=D4
lovel=0
offset=1231
sample=Bassflute_staccatissimo_PP_D4_RR8.opus

<region>
hivel=42
key=D5
lovel=0
offset=945
sample=Bassflute_staccatissimo_PP_D5_RR8.opus

<region>
hivel=42
key=E3
lovel=0
offset=113
sample=Bassflute_staccatissimo_PP_E3_RR8.opus

<region>
hivel=42
key=E4
lovel=0
sample=Bassflute_staccatissimo_PP_E4_RR8.opus

<region>
hivel=42
key=E5
lovel=0
offset=1374
sample=Bassflute_staccatissimo_PP_E5_RR8.opus

<region>
hivel=42
key=F#3
lovel=0
sample=Bassflute_staccatissimo_PP_F#3_RR8.opus

<region>
hivel=42
key=F#4
lovel=0
offset=712
sample=Bassflute_staccatissimo_PP_F#4_RR8.opus

<region>
hivel=42
key=F#5
lovel=0
offset=191
sample=Bassflute_staccatissimo_PP_F#5_RR8.opus

<region>
hivel=42
key=F3
lovel=0
sample=Bassflute_staccatissimo_PP_F3_RR8.opus

<region>
hivel=42
key=F4
lovel=0
offset=2224
sample=Bassflute_staccatissimo_PP_F4_RR8.opus

<region>
hivel=42
key=F5
lovel=0
offset=507
sample=Bassflute_staccatissimo_PP_F5_RR8.opus

<region>
hivel=42
key=G#3
lovel=0
offset=239
sample=Bassflute_staccatissimo_PP_G#3_RR8.opus

<region>
hivel=42
key=G#4
lovel=0
offset=1307
sample=Bassflute_staccatissimo_PP_G#4_RR8.opus

<region>
hivel=42
key=G#5
lovel=0
offset=1511
sample=Bassflute_staccatissimo_PP_G#5_RR8.opus

<region>
hivel=42
key=G3
lovel=0
sample=Bassflute_staccatissimo_PP_G3_RR8.opus

<region>
hivel=42
key=G4
lovel=0
sample=Bassflute_staccatissimo_PP_G4_RR8.opus

<region>
hivel=42
key=G5
lovel=0
offset=224
sample=Bassflute_staccatissimo_PP_G5_RR8.opus

